<?xml version="1.0"?>
<svg xmlns:rdf="http://www.w3.org/1999/02/22-rdf-syntax-ns#" xmlns="http://www.w3.org/2000/svg" xmlns:cc="http://web.resource.org/cc/" xmlns:xlink="http://www.w3.org/1999/xlink" xmlns:dc="http://purl.org/dc/elements/1.1/" style="shape-rendering:geometricPrecision;text-rendering:geometricPrecision;image-rendering:optimizeQuality" fill-rule="evenodd" xml:space="preserve" clip-rule="evenodd" viewBox="0 0 58.282 58.282">
 <defs>
  <style type="text/css">
    .fil0 {fill:#1B1C1F}
    .fil1 {fill:#1B1C1F;fill-rule:nonzero}
  </style>
 </defs>
 <g id="Layer_x0020_1">
  <g id="_152222920">
   <path id="_152222248" class="fil0" d="m24.186 22.5c-5.4466 3.1445 2.8637 18.724 8.8237 15.283 1.0584 1.8332 4.4676 7.7381 5.526 9.5712-2.5146 1.4519-4.6432 2.3671-7.5585 0.70054-8.0946-4.6273-17.005-20.054-16.751-29.256 0.088046-3.196 1.971-4.4482 4.434-5.8702 1.0584 1.8332 4.4676 7.738 5.526 9.5712z"/>
   <path id="_150519168" class="fil0" d="m26.47 22.24c-0.58849 0.33978-1.3458 0.13697-1.6856-0.45158l-5.2095-9.0232c-0.33984-0.58862-0.13704-1.3459 0.45152-1.6857l2.738-1.5808c0.58855-0.33984 1.346-0.13685 1.6858 0.4517l5.2095 9.0231c0.33978 0.58849 0.13691 1.3458-0.45158 1.6856l-2.738 1.5808z"/>
   <path id="_226148072" class="fil0" d="m40.702 46.89c-0.58849 0.33978-1.3458 0.13697-1.6856-0.45164l-5.2095-9.0232c-0.33984-0.58855-0.13704-1.3459 0.45152-1.6856l2.738-1.5808c0.58855-0.33978 1.346-0.13679 1.6858 0.4517l5.2095 9.0231c0.33978 0.58855 0.13691 1.3459-0.45158 1.6856l-2.738 1.5808z"/>
  </g>
  <path class="fil1" d="m29.141-2.845e-15h0.0004319v0.006787c8.05 0.0001234 15.335 3.26 20.604 8.5296 5.2693 5.2693 8.5291 12.554 8.5293 20.604h0.006787v0.0013574h-0.006787c-0.0001234 8.05-3.26 15.335-8.5296 20.604-5.2694 5.2693-12.554 8.5291-20.604 8.5293v0.006787h-0.0013574v-0.006787c-8.05-0.0001234-15.335-3.26-20.604-8.5296-5.2693-5.2694-8.5291-12.554-8.5293-20.604h-0.006787v-0.0013574h0.006787c0.0001234-8.05 3.26-15.335 8.5296-20.604 5.2693-5.2693 12.554-8.5291 20.604-8.5293v-0.006787h0.0009255zm0.0004319 3.4758v0.006787h-0.0013574v-0.006787c-7.0792 0.0001851-13.494 2.8753-18.141 7.5226-4.6477 4.6476-7.5229 11.063-7.5229 18.142h0.006787v0.0013574h-0.006787c0.0001851 7.0792 2.8753 13.494 7.5226 18.141 4.6476 4.6477 11.063 7.5229 18.142 7.5229v-0.006787h0.0013574v0.006787c7.0792-0.0001851 13.494-2.8753 18.141-7.5226 4.6477-4.6476 7.5229-11.063 7.5229-18.142h-0.006787v-0.0013574h0.006787c-0.0001851-7.0792-2.8753-13.494-7.5226-18.141-4.6476-4.6477-11.063-7.5229-18.142-7.5229z"/>
 </g>
<metadata><rdf:RDF><cc:Work><dc:format>image/svg+xml</dc:format><dc:type rdf:resource="http://purl.org/dc/dcmitype/StillImage"/><cc:license rdf:resource="http://creativecommons.org/licenses/publicdomain/"/><dc:publisher><cc:Agent rdf:about="http://openclipart.org/"><dc:title>Openclipart</dc:title></cc:Agent></dc:publisher></cc:Work><cc:License rdf:about="http://creativecommons.org/licenses/publicdomain/"><cc:permits rdf:resource="http://creativecommons.org/ns#Reproduction"/><cc:permits rdf:resource="http://creativecommons.org/ns#Distribution"/><cc:permits rdf:resource="http://creativecommons.org/ns#DerivativeWorks"/></cc:License></rdf:RDF></metadata></svg>
